<svg xmlns="http://www.w3.org/2000/svg" width="28" height="24.539" viewBox="0 0 28 24.539"><defs><style>.a{fill:#6870f5;}</style></defs><g transform="translate(-23.3 -26.6)"><path class="a" d="M48.888,51.139A2.406,2.406,0,0,0,51.3,48.727V33.207a2.406,2.406,0,0,0-2.412-2.412H36.828a.441.441,0,0,1-.367-.21l-.052-.052-1.992-2.779A2.447,2.447,0,0,0,32.371,26.6H25.712A2.406,2.406,0,0,0,23.3,29.012V48.727a2.406,2.406,0,0,0,2.412,2.412Zm-23.6-2.412V29.012a.414.414,0,0,1,.419-.419h6.712a.441.441,0,0,1,.367.21l.052.052,1.992,2.779a2.447,2.447,0,0,0,2.045,1.154H48.94a.414.414,0,0,1,.419.419v15.52a.414.414,0,0,1-.419.419H25.712A.414.414,0,0,1,25.292,48.727Z"/></g></svg>