<svg xmlns="http://www.w3.org/2000/svg" width="31.264" height="30.036" viewBox="0 0 31.264 30.036"><defs><style>.a{fill:#41a8c3;fill-rule:evenodd;}</style></defs><g transform="translate(0 -1.534)"><g transform="translate(0 1.533)"><g transform="translate(0 0)"><g transform="translate(0 0)"><g transform="translate(0 0)"><path class="a" d="M20.559,0a15.784,15.784,0,0,1,5.616,3.248l-.469,4.309a2.572,2.572,0,0,0,1.426,2.467L31.1,11.775a32.122,32.122,0,0,1,0,6.486l-3.968,1.751a2.573,2.573,0,0,0-1.426,2.467l.469,4.31a15.781,15.781,0,0,1-5.616,3.247l-3.5-2.563a2.575,2.575,0,0,0-2.85,0l-3.5,2.563a15.781,15.781,0,0,1-5.616-3.247l.468-4.31a2.571,2.571,0,0,0-1.425-2.467L.164,18.262a32.122,32.122,0,0,1,0-6.486l3.968-1.751A2.569,2.569,0,0,0,5.557,7.558L5.089,3.248A15.784,15.784,0,0,1,10.705,0l3.5,2.563a2.569,2.569,0,0,0,2.85,0ZM10.377,2.343a13.566,13.566,0,0,0-3.094,1.79l.347,3.2a4.656,4.656,0,0,1-2.655,4.6L2.12,13.191c-.046,1.049-.046,2.606,0,3.656l2.854,1.259A4.658,4.658,0,0,1,7.63,22.7l-.347,3.2a13.57,13.57,0,0,0,3.094,1.791l2.6-1.9a4.652,4.652,0,0,1,5.312,0l2.6,1.9a13.554,13.554,0,0,0,3.1-1.791l-.347-3.2a4.658,4.658,0,0,1,2.655-4.6l2.854-1.259c.046-1.048.046-2.606,0-3.656L26.29,11.932a4.656,4.656,0,0,1-2.655-4.6l.347-3.2a13.55,13.55,0,0,0-3.1-1.79l-2.6,1.9a4.647,4.647,0,0,1-5.312,0Zm5.255,8.782a4.013,4.013,0,1,0,4.013,4.013A4.018,4.018,0,0,0,15.632,11.125Zm0,10.11a6.1,6.1,0,1,1,6.1-6.1A6.1,6.1,0,0,1,15.632,21.235Z" transform="translate(0 0)"/></g></g></g></g></g></svg>