<svg xmlns="http://www.w3.org/2000/svg" width="18.708" height="25.825" viewBox="0 0 18.708 25.825"><defs><style>.a{fill:#f84d2d;}</style></defs><g transform="translate(-18.493 -6.506)"><g transform="translate(18.493 6.506)"><path class="a" d="M27.847,6.506a9.392,9.392,0,0,0-5.841,16.716v8.4a.732.732,0,0,0,.365.616.747.747,0,0,0,.713-.017l4.764-3.045,4.764,3.045a.7.7,0,0,0,1.086-.6V23.214A9.391,9.391,0,0,0,27.847,6.506Zm0,1.415A7.98,7.98,0,1,1,19.9,15.9a7.948,7.948,0,0,1,7.945-7.979Zm-.075.94a.7.7,0,0,0-.555.383L25.5,12.713l-3.836.549a.692.692,0,0,0-.563.474.709.709,0,0,0,.174.724l2.776,2.679L23.4,20.95a.727.727,0,0,0,.613.815.688.688,0,0,0,.406-.083l3.43-1.789,3.43,1.789a.711.711,0,0,0,.737-.05.721.721,0,0,0,.282-.682l-.655-3.811,2.776-2.679a.727.727,0,0,0,.174-.724.7.7,0,0,0-.572-.474l-3.836-.549-1.706-3.47a.722.722,0,0,0-.7-.382Zm.075,2.288,1.243,2.513a.723.723,0,0,0,.539.374l2.784.408L30.4,16.4a.717.717,0,0,0-.216.616l.489,2.771-2.5-1.306a.683.683,0,0,0-.646,0l-2.5,1.306.481-2.771a.712.712,0,0,0-.2-.616l-2.022-1.955,2.784-.408a.723.723,0,0,0,.539-.374l1.243-2.513ZM23.406,24.162a9.28,9.28,0,0,0,8.882,0v6.182l-4.068-2.6a.688.688,0,0,0-.754,0l-4.06,2.6V24.162Z" transform="translate(-18.493 -6.506)"/></g></g></svg>