<svg xmlns="http://www.w3.org/2000/svg" width="24.783" height="24.885" viewBox="0 0 24.783 24.885"><defs><style>.a{fill:#40abca;stroke:#40abca;stroke-width:0.5px;fill-rule:evenodd;}</style></defs><g transform="translate(-4.836 -4.647)"><g transform="translate(5.086 4.897)"><path class="a" d="M34.889,972.337a3.857,3.857,0,0,0-3.912,3.787.413.413,0,0,0,.826,0,3.02,3.02,0,0,1,3.086-2.961,3.514,3.514,0,0,1,2.309.89,2.192,2.192,0,0,1,.78,2h0a2.964,2.964,0,0,1-1.884,2.472,3.232,3.232,0,0,0-1.211,1.134,4.045,4.045,0,0,0-.379,2.368.413.413,0,1,0,.823-.064,3.232,3.232,0,0,1,.273-1.894,2.415,2.415,0,0,1,.926-.841,3.989,3.989,0,0,0,2.267-3.04h0a3.05,3.05,0,0,0-1.037-2.748,4.294,4.294,0,0,0-2.867-1.106Z" transform="translate(-22.764 -966.333)"/><path class="a" d="M46.833,1024.717a.826.826,0,1,0,.824.826A.833.833,0,0,0,46.833,1024.717Z" transform="translate(-34.692 -1007.897)"/><path class="a" d="M18.142,958.177a12.193,12.193,0,1,0,12.142,12.194A12.177,12.177,0,0,0,18.142,958.177Zm0,1.1A11.089,11.089,0,1,1,7.1,970.371,11.056,11.056,0,0,1,18.142,959.281Z" transform="translate(-6 -958.177)"/></g></g></svg>