<svg xmlns="http://www.w3.org/2000/svg" width="23.133" height="27.744" viewBox="0 0 23.133 27.744"><defs><style>.a,.b{fill:#ffa41a;}.a{stroke:#ffa41a;stroke-width:0.5px;}</style></defs><g transform="translate(-9.143 -6.843)"><g transform="translate(-0.29 -0.29)"><path class="a" d="M30.534,35.505H13.94a3.028,3.028,0,0,1-3.02-3.02V14.827a3.02,3.02,0,0,1,3.02-3.02h4.144a4.2,4.2,0,0,1,8.306,0h4.144a3.02,3.02,0,0,1,3.02,3.02V32.486a3.028,3.028,0,0,1-3.02,3.02ZM13.94,13.105a1.73,1.73,0,0,0-1.73,1.73v17.65a1.73,1.73,0,0,0,1.73,1.73H30.534a1.73,1.73,0,0,0,1.73-1.73V14.827a1.73,1.73,0,0,0-1.73-1.73H25.793a.658.658,0,0,1-.649-.649,2.907,2.907,0,0,0-5.814,0,.658.658,0,0,1-.649.649Zm12.5-.649Z" transform="translate(-1.237 -0.878)"/><circle class="b" cx="0.865" cy="0.865" r="0.865" transform="translate(20.135 10.713)"/></g></g></svg>