<svg xmlns="http://www.w3.org/2000/svg" width="22.461" height="22.461" viewBox="0 0 22.461 22.461"><defs><style>.a{fill:#df5417;}</style></defs><g transform="translate(-4 -24)"><g transform="translate(4 24)"><path class="a" d="M15.23,46.461a11.23,11.23,0,1,1,11.23-11.23,11.23,11.23,0,0,1-11.23,11.23Zm0-20.589a9.359,9.359,0,1,0,9.359,9.359A9.359,9.359,0,0,0,15.23,25.872Z" transform="translate(-4 -24)"/><path class="a" d="M16.679,36.615H14.808a2.808,2.808,0,0,1,0-5.615h1.872a2.808,2.808,0,0,1,2.808,2.808H17.615a.936.936,0,0,0-.936-.936H14.808a.936.936,0,1,0,0,1.872h1.872Z" transform="translate(-4.513 -24.449)"/><path class="a" d="M16.679,40.615H14.808A2.808,2.808,0,0,1,12,37.808h1.872a.936.936,0,0,0,.936.936h1.872a.936.936,0,1,0,0-1.872H14.808V35h1.872a2.808,2.808,0,0,1,0,5.615Z" transform="translate(-4.513 -24.705)"/><rect class="a" width="2" height="2" transform="translate(10.23 5.23)"/><rect class="a" width="2" height="2" transform="translate(10.23 15.23)"/></g></g></svg>