<svg xmlns="http://www.w3.org/2000/svg" width="23.856" height="26.713" viewBox="0 0 23.856 26.713"><defs><style>.a{fill:#5c5ded;stroke:#5b63ed;}</style></defs><g transform="translate(-688.5 319.5)"><path class="a" d="M503.285,621H481.571a.571.571,0,0,1,0-1.143h2.286v-8a8,8,0,0,1,8-8H493a8,8,0,0,1,8,8v8h2.286a.571.571,0,0,1,0,1.143Zm-3.428-9.142A6.857,6.857,0,0,0,493,605h-1.143A6.857,6.857,0,0,0,485,611.857v8h14.857Zm-7.428-8.571a1.143,1.143,0,1,1,1.143-1.143A1.143,1.143,0,0,1,492.428,603.286Zm-4,18.285a.571.571,0,0,1,.571.571,3.428,3.428,0,0,0,6.857,0,.571.571,0,0,1,1.143,0,4.571,4.571,0,1,1-9.143,0A.571.571,0,0,1,488.428,621.571Z" transform="translate(208 -920)"/></g></svg>