<svg xmlns="http://www.w3.org/2000/svg" width="27.564" height="27.03" viewBox="0 0 27.564 27.03"><defs><style>.a{fill:#ff6421;stroke:#ff6421;stroke-width:0.5px;}</style></defs><g transform="translate(-11.75 -12.5)"><path class="a" d="M37.64,15.065H33.188V13.284a.534.534,0,1,0-1.068,0v1.781H18.944V13.284a.534.534,0,1,0-1.068,0v1.781H13.424A1.429,1.429,0,0,0,12,16.489V37.855a1.429,1.429,0,0,0,1.424,1.424H37.64a1.429,1.429,0,0,0,1.424-1.424V16.489A1.429,1.429,0,0,0,37.64,15.065ZM13.068,16.489a.361.361,0,0,1,.356-.356h4.451v1.781a.534.534,0,0,0,1.068,0V16.133H32.12v1.781a.534.534,0,1,0,1.068,0V16.133H37.64a.361.361,0,0,1,.356.356v3.739H13.068ZM37.64,38.211H13.424a.361.361,0,0,1-.356-.356V21.3H38V37.855A.361.361,0,0,1,37.64,38.211Z" transform="translate(0 0)"/></g></svg>