<svg xmlns="http://www.w3.org/2000/svg" width="27.428" height="27.428" viewBox="0 0 27.428 27.428"><defs><style>.a{fill:#5c58ed;}</style></defs><g transform="translate(-4 -4)"><path class="a" d="M17.714,31.428A13.714,13.714,0,1,1,31.428,17.714,13.714,13.714,0,0,1,17.714,31.428Zm0-25.714a12,12,0,1,0,12,12,12,12,0,0,0-12-12Z"/><path class="a" d="M17.188,25.348l.086-3.755L14.188,23.72a.791.791,0,0,1-1.084-.207l-.918-1.457a.771.771,0,0,1,.207-1.128L15.982,18.8l-3.589-2.171a.857.857,0,0,1-.249-1.125c.415-.628.667-1,1-1.457a.78.78,0,0,1,1.044-.166l3.086,2.127-.086-3.8a.82.82,0,0,1,.792-.792h1.714a.823.823,0,0,1,.792.792l-.086,3.8,3.13-2.127a.837.837,0,0,1,1.088.207l.917,1.42a.82.82,0,0,1-.207,1.169L21.735,18.8l3.592,2.172a.771.771,0,0,1,.249,1.084l-1.043,1.457a.784.784,0,0,1-1.044.207L20.4,21.637l.086,3.715a.82.82,0,0,1-.792.792H17.983A.818.818,0,0,1,17.188,25.348Z" transform="translate(-1.147 -1.059)"/></g></svg>