<svg xmlns="http://www.w3.org/2000/svg" width="24.731" height="22.404" viewBox="0 0 24.731 22.404"><defs><style>.a{fill:#3439da;}</style></defs><g transform="translate(232 -236.973)"><g transform="translate(-232 236.973)"><path class="a" d="M7.2,964.336a2.27,2.27,0,0,0-1.494.507A2.081,2.081,0,0,0,5,966.4v13.86a2.081,2.081,0,0,0,.7,1.557,2.2,2.2,0,0,0,1.5.507H8.3v3.539a.913.913,0,0,0,.46.789.8.8,0,0,0,.863-.088l5.264-4.239H27.533a2.278,2.278,0,0,0,1.494-.516,2.06,2.06,0,0,0,.7-1.548V966.4a2.081,2.081,0,0,0-.7-1.557,2.268,2.268,0,0,0-1.494-.507Zm0,1.769H27.533a.783.783,0,0,1,.481.129c.066.056.069.063.069.166v13.86c0,.1,0,.1-.069.157a.772.772,0,0,1-.481.138H14.618a.8.8,0,0,0-.5.175l-4.173,3.364V981.44a.89.89,0,0,0-.824-.885H7.164a.625.625,0,0,1-.438-.12.171.171,0,0,1-.077-.175V966.4c0-.1,0-.11.069-.166A.783.783,0,0,1,7.2,966.1Z" transform="translate(-5 -964.336)"/></g></g></svg>