<svg xmlns="http://www.w3.org/2000/svg" width="19.677" height="22.935" viewBox="0 0 19.677 22.935"><defs><style>.a{fill:#3ee2ff;}</style></defs><g transform="translate(-5.4 -1)"><g transform="translate(5.4 1)"><path class="a" d="M24.259,1H9.772L5.4,5.3V23.083a.855.855,0,0,0,.815.852H24.259a.855.855,0,0,0,.815-.852V1.778A.749.749,0,0,0,24.259,1Zm-.778,21.342H7.03V5.483H8.92a.855.855,0,0,0,.815-.852v-2H23.444V22.342Z" transform="translate(-5.4 -1)"/><g transform="translate(3.446 7.929)"><path class="a" d="M27.075,28.4H15.145a.445.445,0,1,0,0,.889H27.038a.428.428,0,0,0,.445-.445A.4.4,0,0,0,27.075,28.4Z" transform="translate(-14.7 -26.177)"/><path class="a" d="M27.075,28.4H15.145a.445.445,0,1,0,0,.889H27.038a.428.428,0,0,0,.445-.445A.4.4,0,0,0,27.075,28.4Z" transform="translate(-14.7 -28.4)"/><path class="a" d="M27.075,34.2H15.145a.445.445,0,1,0,0,.889H27.038a.428.428,0,0,0,.445-.445A.421.421,0,0,0,27.075,34.2Z" transform="translate(-14.7 -29.828)"/><path class="a" d="M27.075,40.1H15.145a.445.445,0,0,0,0,.889H27.038a.428.428,0,0,0,.445-.445A.421.421,0,0,0,27.075,40.1Z" transform="translate(-14.7 -33.542)"/><path class="a" d="M27.075,46H15.145a.445.445,0,0,0,0,.889H27.038a.428.428,0,0,0,.445-.445A.421.421,0,0,0,27.075,46Z" transform="translate(-14.7 -37.256)"/></g></g></g></svg>